<?xml version="1.0" encoding="UTF-8" standalone="no"?>
<!DOCTYPE svg PUBLIC "-//W3C//DTD SVG 1.1//EN" "http://www.w3.org/Graphics/SVG/1.1/DTD/svg11.dtd">
<svg width="28px" height="28px" viewBox="0 0 24 24" version="1.1" xmlns="http://www.w3.org/2000/svg" xmlns:xlink="http://www.w3.org/1999/xlink" xml:space="preserve" xmlns:serif="http://www.serif.com/" style="fill-rule:evenodd;clip-rule:evenodd;stroke-linejoin:round;stroke-miterlimit:2;">
    <g id="Artboard1" transform="matrix(1,0,0,1,-0.669241,-1.52382)">
        <rect x="0.669" y="1.524" width="23.331" height="23.331" style="fill:none;"/>
        <g transform="matrix(0.490819,0,0,0.490819,0.554967,1.40954)">
            <path d="M11.05,30.15L16.15,30.15C16.511,30.15 16.81,30.031 17.046,29.794C17.282,29.557 17.4,29.257 17.4,28.894C17.4,28.531 17.282,28.233 17.046,28C16.81,27.767 16.511,27.65 16.15,27.65L11.9,27.65L11.9,20.35L16.15,20.35C16.511,20.35 16.81,20.231 17.046,19.994C17.282,19.757 17.4,19.457 17.4,19.094C17.4,18.731 17.282,18.433 17.046,18.2C16.81,17.967 16.511,17.85 16.15,17.85L11.05,17.85C10.583,17.85 10.191,18.013 9.874,18.339C9.558,18.665 9.4,19.068 9.4,19.55L9.4,28.5C9.4,28.967 9.558,29.359 9.874,29.676C10.191,29.992 10.583,30.15 11.05,30.15ZM20.6,30.15L26.2,30.15C26.668,30.15 27.059,29.992 27.376,29.676C27.692,29.359 27.85,28.967 27.85,28.5L27.85,24.6C27.85,24.167 27.692,23.8 27.376,23.5C27.059,23.2 26.668,23.05 26.2,23.05L21.85,23.05L21.85,20.35L26.6,20.35C26.961,20.35 27.26,20.231 27.496,19.994C27.732,19.757 27.85,19.457 27.85,19.094C27.85,18.731 27.732,18.433 27.496,18.2C27.26,17.967 26.961,17.85 26.6,17.85L21,17.85C20.533,17.85 20.141,18.008 19.824,18.324C19.508,18.641 19.35,19.033 19.35,19.5L19.35,23.4C19.35,23.867 19.508,24.258 19.824,24.575C20.141,24.892 20.533,25.05 21,25.05L25.35,25.05L25.35,27.65L20.6,27.65C20.239,27.65 19.94,27.769 19.704,28.006C19.468,28.243 19.35,28.543 19.35,28.906C19.35,29.269 19.468,29.567 19.704,29.8C19.94,30.033 20.239,30.15 20.6,30.15ZM34.35,27L32.25,18.75C32.183,18.483 32.044,18.267 31.833,18.1C31.621,17.933 31.374,17.85 31.092,17.85C30.697,17.85 30.375,18.017 30.125,18.35C29.875,18.683 29.8,19.033 29.9,19.4L32.6,29.15C32.667,29.45 32.833,29.692 33.1,29.875C33.367,30.058 33.657,30.15 33.972,30.15L34.728,30.15C35.043,30.15 35.325,30.058 35.575,29.875C35.825,29.692 35.983,29.467 36.05,29.2L39.05,19.35C39.183,18.972 39.126,18.627 38.878,18.316C38.63,18.005 38.31,17.85 37.919,17.85C37.64,17.85 37.392,17.925 37.175,18.075C36.958,18.225 36.817,18.433 36.75,18.7L34.35,27ZM7,40C6.2,40 5.5,39.7 4.9,39.1C4.3,38.5 4,37.8 4,37L4,11C4,10.2 4.3,9.5 4.9,8.9C5.5,8.3 6.2,8 7,8L41,8C41.8,8 42.5,8.3 43.1,8.9C43.7,9.5 44,10.2 44,11L44,37C44,37.8 43.7,38.5 43.1,39.1C42.5,39.7 41.8,40 41,40L7,40ZM7,37L41,37L41,11L7,11L7,37ZM7,37L7,11L7,37Z" style="fill:white;fill-rule:nonzero;"/>
        </g>
    </g>
</svg>
